# xmcd
#
# Track frame offsets: 
#        150
#        18652
#        40378
#        64911
#        83603
#        107805
#        123772
#        141470
#        158117
#        183638
#        200440
#        214825
#        237224
#        259547
#
# Disc length: 3696 seconds
#
# Revision: 0
# Processed by: cddbd v1.5.2PL0 Copyright (c) Steve Scherf et al.
# Submitted via: ExactAudioCopy v1.0b4
#
DISCID=c70e6e0e
DTITLE=Red House - Hits 1997-2012
DYEAR=2012
DGENRE=Blues
TTITLE0=She loves me overtime
TTITLE1=Crazy bed
TTITLE2=The day the dream comes true
TTITLE3=Running on back
TTITLE4=Hold on to the light
TTITLE5=Lovin' money just can't buy
TTITLE6=Guitar delta tone
TTITLE7=Drinkin' whiskey
TTITLE8=Rattlesnake road
TTITLE9=Secret bluesman
TTITLE10=Let the blues man play
TTITLE11=Black cat bone
TTITLE12=Love's a looney toon
TTITLE13=Chihuahua boogie
EXTD=
EXTT0=
EXTT1=
EXTT2=
EXTT3=
EXTT4=
EXTT5=
EXTT6=
EXTT7=
EXTT8=
EXTT9=
EXTT10=
EXTT11=
EXTT12=
EXTT13=
PLAYORDER=
